<svg xmlns="http://www.w3.org/2000/svg" version="1.1" xmlns:xlink="http://www.w3.org/1999/xlink" width="1000" height="1000"><g clip-path="url(#SvgjsClipPath1218)"><rect width="1000" height="1000" fill="6A6A6A"></rect><g transform="matrix(2.5,0,0,2.5,0,0)"><svg xmlns="http://www.w3.org/2000/svg" version="1.1" xmlns:xlink="http://www.w3.org/1999/xlink" width="400" height="400"><svg width="400" height="400" viewBox="0 0 400 400" fill="none" xmlns="http://www.w3.org/2000/svg">
<rect width="400" height="400" rx="25" fill="#6A6A6A"></rect>
<path d="M341.5 128.5V314.5H103.5V128.5H341.5Z" stroke="#F6E05E" stroke-width="13"></path>
<path d="M321.5 142.5V296.5H117.5V289.5H314.5V142.5H321.5Z" stroke="#F6E05E" stroke-width="7"></path>
<path d="M298 143V274H118V268H292V143H298Z" stroke="#F6E05E" stroke-width="8"></path>
<path d="M321.5 103.5V115.5H314.5V110.5H84.5V289.5H89.5V296.5H77.5V103.5H321.5Z" stroke="#F6E05E" stroke-width="7"></path>
<path d="M297 83V92H293V87H60V269H65V273H56V83H297Z" stroke="#F6E05E" stroke-width="10"></path>
<path d="M341.5 128.5V315.5H103.5V128.5H341.5Z" stroke="#F6E05E" stroke-width="13"></path>
</svg></svg></g></g><defs><clipPath id="SvgjsClipPath1218"><rect width="1000" height="1000" x="0" y="0" rx="0" ry="0"></rect></clipPath></defs></svg>