<svg width="735" height="244" viewBox="0 0 735 244" fill="none" xmlns="http://www.w3.org/2000/svg">
<g clip-path="url(#clip0_1_20)">
<path d="M290.5 50.5V236.5H52.5V50.5H290.5Z" stroke="#F6E05E" stroke-width="13"/>
<path d="M270.5 64.5V218.5H66.5V211.5H263.5V64.5H270.5Z" stroke="#F6E05E" stroke-width="7"/>
<path d="M247 65V196H67V190H241V65H247Z" stroke="#F6E05E" stroke-width="8"/>
<path d="M270.5 25.5V37.5H263.5V32.5H33.5V211.5H38.5V218.5H26.5V25.5H270.5Z" stroke="#F6E05E" stroke-width="7"/>
<path d="M246 5V14H242V9H9V191H14V195H5V5H246Z" stroke="#F6E05E" stroke-width="10"/>
<path d="M419.496 170C418.344 170.192 417.192 170.336 416.04 170.432C414.888 170.624 413.736 170.72 412.584 170.72C411.048 170.72 409.56 170.528 408.12 170.144C406.68 169.76 405.384 169.088 404.232 168.128C403.176 167.168 402.312 165.872 401.64 164.24C401.064 162.512 400.776 160.304 400.776 157.616V69.2H410.424V157.184C410.424 158.816 410.808 159.968 411.576 160.64C412.344 161.216 413.4 161.504 414.744 161.504C415.416 161.504 416.136 161.456 416.904 161.36C417.672 161.264 418.536 161.168 419.496 161.072V170ZM457.095 169.136L423.975 98H434.631L461.991 156.176L483.879 98H494.103L465.735 173.744C462.471 181.904 458.103 188.24 452.631 192.752C447.255 197.36 440.871 199.376 433.479 198.8V189.44C436.455 189.728 439.143 189.344 441.543 188.288C443.943 187.328 446.055 185.936 447.879 184.112C449.799 182.384 451.479 180.32 452.919 177.92C454.359 175.52 455.559 173.072 456.519 170.576L457.095 169.136ZM619.536 170H609.744V126.944C609.744 122.624 609.024 119.072 607.584 116.288C606.24 113.408 604.512 111.152 602.4 109.52C600.384 107.888 598.128 106.784 595.632 106.208C593.136 105.536 590.736 105.2 588.432 105.2C586.224 105.2 583.92 105.584 581.52 106.352C579.216 107.024 577.104 108.32 575.184 110.24C573.264 112.064 571.68 114.56 570.432 117.728C569.184 120.896 568.56 124.928 568.56 129.824V170H558.768V126.944C558.768 122.624 558.048 119.072 556.608 116.288C555.264 113.408 553.536 111.152 551.424 109.52C549.312 107.888 547.008 106.784 544.512 106.208C542.016 105.536 539.664 105.2 537.456 105.2C535.248 105.2 532.944 105.584 530.544 106.352C528.24 107.024 526.08 108.32 524.064 110.24C522.144 112.064 520.56 114.56 519.312 117.728C518.064 120.896 517.44 124.928 517.44 129.824V170H507.792V98H517.44V107.36C519.648 104.288 522.576 101.696 526.224 99.584C529.968 97.472 534.288 96.416 539.184 96.416C541.2 96.416 543.408 96.656 545.808 97.136C548.304 97.52 550.8 98.336 553.296 99.584C555.792 100.736 558.096 102.368 560.208 104.48C562.416 106.496 564.24 109.088 565.68 112.256C566.544 110.24 567.696 108.32 569.136 106.496C570.672 104.576 572.496 102.896 574.608 101.456C576.72 99.92 579.072 98.72 581.664 97.856C584.256 96.896 587.088 96.416 590.16 96.416C592.752 96.416 595.728 96.848 599.088 97.712C602.544 98.48 605.76 99.968 608.736 102.176C611.808 104.384 614.352 107.504 616.368 111.536C618.48 115.472 619.536 120.608 619.536 126.944V170ZM672.028 171.728C666.844 171.728 661.948 170.768 657.34 168.848C652.828 166.832 648.844 164.144 645.388 160.784C642.028 157.328 639.34 153.296 637.324 148.688C635.404 144.08 634.444 139.184 634.444 134C634.444 128.816 635.404 123.968 637.324 119.456C639.34 114.848 642.028 110.864 645.388 107.504C648.844 104.144 652.828 101.504 657.34 99.584C661.948 97.568 666.844 96.56 672.028 96.56C677.212 96.56 682.06 97.568 686.572 99.584C691.18 101.504 695.164 104.144 698.524 107.504C701.98 110.864 704.668 114.848 706.588 119.456C708.604 123.968 709.612 128.816 709.612 134C709.612 139.184 708.604 144.08 706.588 148.688C704.668 153.296 701.98 157.328 698.524 160.784C695.164 164.144 691.18 166.832 686.572 168.848C682.06 170.768 677.212 171.728 672.028 171.728ZM671.884 161.936C675.724 161.936 679.324 161.216 682.684 159.776C686.14 158.24 689.116 156.224 691.612 153.728C694.108 151.232 696.076 148.304 697.516 144.944C699.052 141.488 699.82 137.84 699.82 134C699.82 130.16 699.052 126.56 697.516 123.2C696.076 119.744 694.108 116.768 691.612 114.272C689.116 111.776 686.14 109.808 682.684 108.368C679.324 106.832 675.724 106.064 671.884 106.064C668.044 106.064 664.444 106.832 661.084 108.368C657.724 109.808 654.748 111.776 652.156 114.272C649.66 116.768 647.692 119.744 646.252 123.2C644.812 126.56 644.092 130.16 644.092 134C644.092 137.84 644.812 141.488 646.252 144.944C647.692 148.304 649.66 151.232 652.156 153.728C654.748 156.224 657.724 158.24 661.084 159.776C664.444 161.216 668.044 161.936 671.884 161.936ZM722.443 165.536C722.443 163.616 722.971 162.128 724.027 161.072C725.083 160.016 726.571 159.488 728.491 159.488C730.411 159.488 731.899 160.016 732.955 161.072C734.011 162.128 734.539 163.616 734.539 165.536C734.539 167.456 734.011 168.944 732.955 170C731.899 171.056 730.411 171.584 728.491 171.584C726.571 171.584 725.083 171.056 724.027 170C722.971 168.944 722.443 167.456 722.443 165.536Z" fill="#696969"/>
<path d="M290.5 50.5V237.5H52.5V50.5H290.5Z" stroke="#F6E05E" stroke-width="13"/>
</g>
<defs>
<clipPath id="clip0_1_20">
<rect width="735" height="244" fill="white"/>
</clipPath>
</defs>
</svg>
